<svg width="60" height="22" viewBox="0 0 60 22" fill="none" xmlns="http://www.w3.org/2000/svg">
<g id="FontAwesome/twitter">
<path id="twitter" d="M57.4229 7.95894C58.0558 7.48433 58.6253 6.91479 59.0683 6.25034C58.4987 6.50347 57.8343 6.69331 57.1698 6.75659C57.8659 6.34526 58.3722 5.71245 58.6253 4.92144C57.9925 5.30112 57.2647 5.58589 56.537 5.74409C55.9042 5.07964 55.0499 4.69995 54.1007 4.69995C52.2655 4.69995 50.7784 6.18706 50.7784 8.02222C50.7784 8.27534 50.8101 8.52847 50.8733 8.78159C48.1206 8.62339 45.6526 7.29448 44.0073 5.30112C43.7226 5.77573 43.5644 6.34526 43.5644 6.97808C43.5644 8.11714 44.1339 9.12964 45.0515 9.73081C44.5136 9.69917 43.9757 9.57261 43.5327 9.31948V9.35112C43.5327 10.9648 44.6718 12.2937 46.1905 12.6101C45.9374 12.6734 45.621 12.7367 45.3362 12.7367C45.1147 12.7367 44.9249 12.705 44.7034 12.6734C45.1147 14.0023 46.3487 14.9515 47.8042 14.9832C46.6651 15.8691 45.2413 16.407 43.6909 16.407C43.4062 16.407 43.153 16.3753 42.8999 16.3437C44.3554 17.2929 46.0956 17.8308 47.994 17.8308C54.1007 17.8308 57.4229 12.8 57.4229 8.4019C57.4229 8.2437 57.4229 8.11714 57.4229 7.95894Z" fill="#111928"/>
</g>
</svg>
